<svg width="540" height="832" viewBox="0 0 540 832" xmlns="http://www.w3.org/2000/svg">
    <g fill="none" fill-rule="evenodd">
        <path d="M262.842 831.786C140.588 831.786 36.828 752.625 0 642.771a105.602 105.602 0 0 0 47.452-88.147c0-35.46-17.805-68.554-47.39-88.096 5.86-17.476 13.467-34.393 22.668-50.48l76.335-132.35v138.836c-7.892 4.564-13.197 13.095-13.197 22.866 0 14.576 11.817 26.396 26.397 26.396 14.576 0 26.396-11.82 26.396-26.396 0-9.771-5.31-18.302-13.2-22.866V283.675l76.426 132.374a277.03 277.03 0 0 1 22.76 50.48 105.577 105.577 0 0 0-47.39 88.095c0 58.486 47.534 105.585 105.58 105.585 58.311 0 105.584-47.272 105.584-105.585 0-18.529-4.879-36.738-14.149-52.79-54.912-94.298-181.874-188.736-181.874-304.606 0-96.879 52.563-155.707 124.476-197.228-111.744 111.745-39.35 284.214 38.436 284.214 65.605 0 56.76-80.118 23.827-99.13 79.935 21.418 117.268 83.222 117.268 149.209 0 70.848-49.325 102.825-49.325 170.467 0 83.096 89.908 92.824 83.478-21.863a277.244 277.244 0 0 1 9.442 71.73c0 152.12-123.275 277.159-277.158 277.159z" fill="#DC0000"/>
        <path d="M374.27 501.835c-54.91-94.3-181.872-188.737-181.872-304.608 0-96.878 52.563-155.706 124.476-197.227-111.744 111.745-39.35 284.214 38.436 284.214 34.36 0 48.29-21.98 49.041-45.638.752 79.074-84.65 151.943-30.08 263.26zm28.968-278.075-.021-.167-.01-.014.03.18zM47.45 554.625c0-35.459-17.805-68.553-47.39-88.095 5.861-17.476 13.467-34.393 22.668-50.48L99.063 283.7v138.835c-7.89 4.565-13.196 13.095-13.196 22.866 0 14.577 11.816 26.396 26.396 26.396 14.577 0 26.397-11.82 26.397-26.396 0-9.77-5.31-18.301-13.2-22.866V283.677l76.426 132.374a277.03 277.03 0 0 1 22.76 50.479 105.577 105.577 0 0 0-47.391 88.095c0 58.487 47.534 105.586 105.58 105.586 58.312 0 105.585-47.273 105.585-105.586 0-16.94-4.079-33.62-11.865-48.621C549.513 814.775 47.45 967.397 47.45 554.625z" fill="#DC5800"/>
        <path d="M379.137 185.082c79.935 21.418 117.268 83.222 117.268 149.209 0 70.848-49.325 102.825-49.325 170.467 0 66.056 56.814 85.745 76.884 33.424v.015c-9.372 30.823-34.849 52.585-59.956 52.585-32.132 0-55.428-32.932-55.428-84.597 0-91.09 59.753-124.087 59.753-192.067 0-58.58-27.127-103.684-89.196-129.036z" fill="#DC5800"/>
        <path d="M316.874 0c-111.744 111.745-39.35 284.214 38.436 284.214 20.828 0 34.143-8.08 41.574-19.713-13.196 28.458-36.712 46.451-66.368 46.451-73.6 0-194.833-161.074-13.642-310.952zM.06 466.53c5.861-17.476 13.467-34.393 22.668-50.48L99.063 283.7v138.835c-7.89 4.565-13.196 13.095-13.196 22.866 0 14.577 11.816 26.396 26.396 26.396 14.577 0 26.397-11.82 26.397-26.396 0-9.771-5.31-18.301-13.2-22.866V283.677l76.426 132.374a277.03 277.03 0 0 1 22.76 50.479 105.577 105.577 0 0 0-47.391 88.095c0 58.487 47.534 105.586 105.58 105.586 29.157 0 55.552-11.817 74.66-30.925-32.087 35.18-75.182 59.364-120.74 59.364-131.9 0-114.69-222.12-236.695-222.12z" fill="#FE8F00"/>
    </g>
</svg>
